<svg width="136" height="30" viewBox="0 0 136 30" fill="none" xmlns="http://www.w3.org/2000/svg">
<path fill-rule="evenodd" clip-rule="evenodd" d="M94.5264 29.1468H89.3848V0.5H94.5264V29.1468ZM0.953361 6.77029L0.85791 6.82354V12.4011L9.32121 7.69545V20.6344C9.32121 23.9823 10.4794 26.3251 11.472 27.317C12.0447 27.8827 12.7193 28.3087 13.4829 28.5749C14.3419 28.901 14.8892 29.0608 15.2455 29.0807C15.621 29.1074 15.9965 29.1273 16.4228 29.1273C17.7972 29.1273 18.9617 29.0807 19.8908 28.9742L20.0499 28.9543V24.2553L19.859 24.2686C19.2926 24.3019 18.6754 24.3152 18.0136 24.3152C15.621 24.3152 14.4565 23.137 14.4565 20.7209V7.7021L22.9197 12.4078V6.82354L11.8984 0.640241L0.953361 6.77029ZM58.6041 7.16249V9.12598C56.7141 7.44205 54.2515 6.59009 51.2861 6.59009C48.3526 6.59009 45.7882 7.7349 43.6565 9.98459C43.3446 10.3107 43.0647 10.6502 42.7975 10.9963C41.2448 13.033 40.462 15.4291 40.462 18.1313C40.462 20.8469 41.2512 23.2431 42.7975 25.2731C43.0647 25.6259 43.3575 25.972 43.6756 26.3048C44.7955 27.5028 46.0428 28.388 47.4045 28.9604C48.6136 29.4663 49.9054 29.7259 51.2799 29.7259C52.8834 29.7259 54.3343 29.4663 55.6387 28.9604C56.7332 28.5411 57.7195 27.9554 58.5913 27.19V28.9604V29.1535H63.7329V7.16249H59.5268H58.6041ZM56.7204 22.7976C55.4606 24.0221 53.8888 24.6411 52.0561 24.6411C50.2426 24.6411 48.7026 24.0221 47.4872 22.7976C46.2463 21.5928 45.6164 20.0353 45.6164 18.1584C45.6164 16.2615 46.2272 14.7372 47.4872 13.4926C48.709 12.2879 50.2426 11.6755 52.0497 11.6755C53.8761 11.6755 55.4415 12.2879 56.7141 13.4926C57.9868 14.7306 58.6105 16.2548 58.6105 18.1584C58.6105 20.0686 57.9932 21.5861 56.7204 22.7976ZM30.9847 10.2375C32.6455 8.01449 34.9937 6.88965 37.9717 6.88965C38.538 6.88965 39.0471 6.90296 39.5307 6.92958L39.6961 6.94289V12.1345L38.328 11.9614C36.0373 11.9614 34.2173 12.8932 32.9509 14.7236C31.6274 16.6271 30.9847 18.5308 30.9847 20.5408V29.1468H25.843V7.16253H30.9847V10.2375ZM108.526 6.59009C105.395 6.59009 102.78 7.71494 100.756 9.93134C98.7324 12.1477 97.7079 14.9166 97.7079 18.1513C97.7079 21.5592 98.7642 24.3679 100.858 26.5044C102.977 28.6676 105.579 29.7192 108.812 29.7192C111.593 29.7192 114.285 29.0603 116.792 27.7557L116.983 27.6559L114.081 23.3629L113.941 23.4295C112.35 24.2348 110.683 24.6342 108.857 24.6342C105.758 24.6342 103.76 23.2363 102.913 20.4808H119.324V18.6039C119.324 14.8633 118.249 11.8948 116.13 9.77826C114.005 7.66169 111.446 6.59009 108.526 6.59009ZM106.506 12.028C104.775 12.6603 103.528 14.0048 102.962 15.8219H114.066C113.646 14.5107 112.933 13.4923 111.947 12.7802C110.426 11.642 108.339 11.3558 106.506 12.028ZM134.276 6.88306C134.842 6.88306 135.351 6.90303 135.835 6.93631L136 6.94296V12.1345L134.632 11.9615C132.341 11.9615 130.521 12.8933 129.255 14.7237C127.931 16.6272 127.289 18.5308 127.289 20.5408V29.1402H122.141V7.15595H127.289V10.231C128.95 8.00789 131.298 6.88306 134.276 6.88306ZM67.3806 12.2142H79.1719L67.4379 23.8686L67.3806 23.9219V29.1467H85.8471V24.0883H74.0049L85.8471 12.2542V7.15576H67.3806V12.2142Z" fill="white"/>
</svg>
